<?xml version="1.0" encoding="utf-8"?>
<!-- Generator: Adobe Illustrator 23.0.5, SVG Export Plug-In . SVG Version: 6.00 Build 0)  -->
<svg version="1.1" id="Layer_1" xmlns="http://www.w3.org/2000/svg" xmlns:xlink="http://www.w3.org/1999/xlink" x="0px" y="0px"
	 viewBox="0 0 100 84.6" style="enable-background:new 0 0 100 84.6;" xml:space="preserve">
<style type="text/css">
	.st0{fill:none;stroke:#FFFFFF;stroke-width:2;stroke-miterlimit:10;}
</style>
<g>
	<path class="st0" d="M73.4,55.8c-2.6-3.2-4-7.1-4-11.2v-7.8c0-9.4-6.6-17.2-15.4-19.1V14c0-2.3-1.9-4.2-4.2-4.2s-4.2,1.9-4.2,4.2
		v3.7c-8.8,1.9-15.4,9.7-15.4,19.1v7.8c0,4.1-1.4,8-4,11.2L23,60c-2.4,3-0.3,7.4,3.5,7.4h47c3.8,0,5.9-4.4,3.5-7.4L73.4,55.8z"/>
	<path class="st0" d="M68.4,12.8c-1.3,1.4-1.3,3.6,0.1,4.9c4.7,4.5,7.5,10.6,7.9,17c0.1,1.8,1.7,3.2,3.5,3.2c0.1,0,0.2,0,0.2,0
		c1.9-0.1,3.4-1.8,3.2-3.7c-0.6-8.1-4.1-15.8-10-21.5C71.9,11.4,69.8,11.5,68.4,12.8z"/>
	<path class="st0" d="M23.6,34.8c0.5-6.4,3.3-12.5,7.9-17c1.4-1.3,1.4-3.6,0.1-4.9c-1.3-1.4-3.6-1.4-4.9-0.1
		c-5.9,5.7-9.4,13.4-10,21.5c-0.1,1.9,1.3,3.6,3.2,3.7c0.1,0,0.2,0,0.2,0C21.9,38.1,23.4,36.6,23.6,34.8z"/>
	<path class="st0" d="M22.3,7.3c1.4-1.3,1.5-3.5,0.2-4.9S19,0.9,17.6,2.2C8,11.1,2.5,23.7,2.5,36.8v0.9c0,1.9,1.6,3.5,3.5,3.5
		s3.5-1.6,3.5-3.5v-0.9C9.5,25.5,14,15,22.3,7.3z"/>
	<path class="st0" d="M82.4,2.2c-1.4-1.3-3.6-1.3-4.9,0.2c-1.3,1.4-1.3,3.6,0.2,4.9c8.3,7.7,12.8,18.2,12.8,29.5v0.9
		c0,1.9,1.6,3.5,3.5,3.5c1.9,0,3.5-1.6,3.5-3.5v-0.9C97.4,23.7,91.9,11.1,82.4,2.2z"/>
	<path class="st0" d="M50,83c5.5,0,10-4.5,10-10H40C40,78.5,44.5,83,50,83z"/>
</g>
</svg>
