<?xml version="1.0" encoding="utf-8"?>
<!-- Generator: Adobe Illustrator 23.0.5, SVG Export Plug-In . SVG Version: 6.00 Build 0)  -->
<svg version="1.1" id="Layer_1" xmlns="http://www.w3.org/2000/svg" xmlns:xlink="http://www.w3.org/1999/xlink" x="0px" y="0px"
	 viewBox="0 0 511 511" style="enable-background:new 0 0 511 511;" xml:space="preserve">
<style type="text/css">
	.st0{fill:#FFFFFF;}
</style>
<path class="st0" d="M501.8,151L361,10.2c-12.2-12.2-32.1-12.2-44.4,0L266,60.7c-12.2,12.2-12.2,32.2,0,44.4l9.6,9.6l-149.3,50.1
	c-2.9,1-5.2,3.2-6.2,6L0.6,498.6c-1.3,3.6-0.4,7.7,2.3,10.5C4.8,511,7.4,512,10,512c1.1,0,2.3-0.2,3.4-0.6l150.4-54.8
	c5.2-1.9,7.8-7.6,6-12.8c-1.9-5.2-7.6-7.8-12.8-6l-108,39.4l157.7-157.7c6.3,3.7,13.4,5.6,20.4,5.6c10.3,0,20.6-3.9,28.4-11.7
	c15.7-15.7,15.7-41.1,0-56.8s-41.1-15.7-56.8,0c-13.2,13.2-15.3,33.4-6.2,48.8L34.8,463.1l102.4-280.8l154.2-51.7l90,90l-51.7,154.2
	l-97.6,35.6c-5.2,1.9-7.8,7.6-6,12.8c1.9,5.2,7.6,7.8,12.8,6l102.2-37.3c2.9-1,5.1-3.3,6-6.2l50.1-149.3l9.6,9.6
	c5.9,5.9,13.8,9.2,22.2,9.2c8.4,0,16.3-3.3,22.2-9.2l50.6-50.6c5.9-5.9,9.2-13.8,9.2-22.2C511,164.8,507.7,156.9,501.8,151z
	 M212.8,270.6c3.9-3.9,9.1-5.9,14.3-5.9s10.3,2,14.3,5.9c7.9,7.9,7.9,20.7,0,28.6s-20.7,7.9-28.6,0
	C204.9,291.3,204.9,278.5,212.8,270.6z M487.7,181.3l-18.3,18.3c-0.2-0.3-0.4-0.5-0.7-0.8l-82.4-82.4c-3.9-3.9-10.2-3.9-14.1,0
	c-3.9,3.9-3.9,10.2,0,14.1l82.4,82.4c0.2,0.2,0.5,0.5,0.8,0.7l-18.3,18.3c-2.2,2.2-5,3.3-8.1,3.3c-3.1,0-5.9-1.2-8.1-3.3L280.1,91
	c-4.5-4.5-4.5-11.7,0-16.2l50.6-50.6c4.5-4.5,11.7-4.5,16.2,0l140.8,140.8c2.2,2.2,3.3,5,3.3,8.1C491,176.3,489.9,179.1,487.7,181.3
	z"/>
<path class="st0" d="M351.1,85.3c-2.6,0-5.2,1.1-7.1,2.9c-1.9,1.9-2.9,4.4-2.9,7.1c0,2.6,1.1,5.2,2.9,7.1c1.9,1.9,4.4,2.9,7.1,2.9
	c2.6,0,5.2-1.1,7.1-2.9c1.9-1.9,2.9-4.4,2.9-7.1c0-2.6-1.1-5.2-2.9-7.1C356.3,86.3,353.7,85.3,351.1,85.3z"/>
<path class="st0" d="M198,423.4c-2.6,0-5.2,1.1-7.1,2.9c-1.9,1.9-2.9,4.4-2.9,7.1c0,2.6,1.1,5.2,2.9,7.1c1.9,1.9,4.4,2.9,7.1,2.9
	s5.2-1.1,7.1-2.9c1.9-1.9,2.9-4.4,2.9-7.1c0-2.6-1.1-5.2-2.9-7.1C203.2,424.5,200.6,423.4,198,423.4z"/>
</svg>
