<?xml version="1.0" encoding="utf-8"?>
<!-- Generator: Adobe Illustrator 23.0.5, SVG Export Plug-In . SVG Version: 6.00 Build 0)  -->
<svg version="1.1" id="Layer_1" xmlns="http://www.w3.org/2000/svg" xmlns:xlink="http://www.w3.org/1999/xlink" x="0px" y="0px"
	 viewBox="0 0 28.6 28.6" style="enable-background:new 0 0 28.6 28.6;" xml:space="preserve">
<style type="text/css">
	.st0{fill:#FF771F;}
</style>
<g>
	<path class="st0" d="M20.3,14.3c0,3.3-2.7,6-6,6c-1.3,0-2.6-0.4-3.6-1.2c-0.5-0.3-0.6-0.9-0.3-1.4c0.3-0.5,0.9-0.6,1.4-0.3
		c0,0,0.1,0.1,0.1,0.1c1.8,1.3,4.3,1,5.6-0.8c1.3-1.8,1-4.3-0.8-5.6c-1.6-1.2-3.8-1.1-5.2,0.3c-0.4,0.4-1,0.4-1.4,0c0,0,0,0,0,0
		c-0.4-0.4-0.4-1,0-1.4c1.1-1.1,2.6-1.7,4.2-1.7C17.6,8.3,20.3,11,20.3,14.3z"/>
	<circle class="st0" cx="9.3" cy="16.3" r="1"/>
	<circle class="st0" cx="9.3" cy="13.3" r="1"/>
	<path class="st0" d="M20.3,14.3c0,3.3-2.7,6-6,6c-1.3,0-2.6-0.4-3.6-1.2c-0.5-0.3-0.6-0.9-0.3-1.4c0.3-0.5,0.9-0.6,1.4-0.3
		c0,0,0.1,0.1,0.1,0.1c1.8,1.3,4.3,1,5.6-0.8c1.3-1.8,1-4.3-0.8-5.6c-1.6-1.2-3.8-1.1-5.2,0.3c-0.4,0.4-1,0.4-1.4,0c0,0,0,0,0,0
		c-0.4-0.4-0.4-1,0-1.4c1.1-1.1,2.6-1.7,4.2-1.7C17.6,8.3,20.3,11,20.3,14.3z"/>
	<path class="st0" d="M27.3,10.3H25c-0.2,0-0.3-0.1-0.4-0.3c-0.1-0.2,0-0.4,0.1-0.5l1.6-1.6c0.4-0.4,0.4-1,0-1.4c0,0,0,0,0,0
		l-4.2-4.2c-0.4-0.4-1-0.4-1.4,0c0,0,0,0,0,0l-1.6,1.6C18.9,4,18.7,4.1,18.6,4c-0.2-0.1-0.3-0.2-0.3-0.4V1.3c0-0.5-0.5-1-1-1h-6
		c-0.5,0-1,0.5-1,1v2.3c0,0.2-0.1,0.3-0.3,0.4C9.8,4,9.7,4,9.5,3.9L7.9,2.3c-0.4-0.4-1-0.4-1.4,0c0,0,0,0,0,0L2.3,6.5
		c-0.4,0.4-0.4,1,0,1.4c0,0,0,0,0,0l1.6,1.6C4,9.6,4.1,9.8,4,10c-0.1,0.2-0.2,0.3-0.4,0.3H1.3c-0.5,0-1,0.5-1,1v6c0,0.5,0.5,1,1,1
		h2.3c0.2,0,0.3,0.1,0.4,0.3c0.1,0.2,0,0.4-0.1,0.5l-1.6,1.6c-0.4,0.4-0.4,1,0,1.4c0,0,0,0,0,0l4.2,4.2c0.4,0.4,1,0.4,1.4,0
		c0,0,0,0,0,0l1.6-1.6c0.1-0.1,0.3-0.2,0.5-0.1c0.2,0.1,0.3,0.2,0.3,0.4v2.3c0,0.5,0.5,1,1,1h6c0.5,0,1-0.5,1-1V25
		c0-0.2,0.1-0.3,0.3-0.4c0.2-0.1,0.4,0,0.5,0.1l1.6,1.6c0.4,0.4,1,0.4,1.4,0c0,0,0,0,0,0l4.2-4.2c0.4-0.4,0.4-1,0-1.4c0,0,0,0,0,0
		l-1.6-1.6c-0.1-0.1-0.2-0.3-0.1-0.5c0.1-0.2,0.2-0.3,0.4-0.3h2.3c0.5,0,1-0.5,1-1v-6C28.3,10.7,27.8,10.3,27.3,10.3z M26.3,16.3H25
		c-1.3,0-2.5,1.1-2.5,2.4c0,0.7,0.3,1.3,0.7,1.7l0.9,0.9l-2.8,2.8l-0.9-0.9c-1-1-2.5-1-3.5,0c-0.5,0.5-0.7,1.1-0.7,1.7v1.3h-4V25
		c0-1.3-1.1-2.5-2.4-2.5c-0.7,0-1.3,0.3-1.7,0.7l-0.9,0.9l-2.8-2.8l0.9-0.9c1-1,1-2.5,0-3.5c-0.5-0.5-1.1-0.7-1.7-0.7H2.3v-4h1.3
		c1.3,0,2.5-1.1,2.5-2.4c0-0.7-0.3-1.3-0.7-1.7L4.4,7.2l2.8-2.8l0.9,0.9c1,1,2.5,1,3.5,0c0.5-0.5,0.7-1.1,0.7-1.7V2.3h4v1.3
		c0,1.3,1.1,2.5,2.4,2.5c0.7,0,1.3-0.3,1.7-0.7l0.9-0.9l2.8,2.8l-0.9,0.9c-1,1-1,2.5,0,3.5c0.5,0.5,1.1,0.7,1.7,0.7h1.3V16.3z"/>
	<path class="st0" d="M20.3,14.3c0,3.3-2.7,6-6,6c-1.3,0-2.6-0.4-3.6-1.2c-0.5-0.3-0.6-0.9-0.3-1.4c0.3-0.5,0.9-0.6,1.4-0.3
		c0,0,0.1,0.1,0.1,0.1c1.8,1.3,4.3,1,5.6-0.8c1.3-1.8,1-4.3-0.8-5.6c-1.6-1.2-3.8-1.1-5.2,0.3c-0.4,0.4-1,0.4-1.4,0c0,0,0,0,0,0
		c-0.4-0.4-0.4-1,0-1.4c1.1-1.1,2.6-1.7,4.2-1.7C17.6,8.3,20.3,11,20.3,14.3z"/>
</g>
</svg>
